<?xml version="1.0" standalone="no"?>
<!DOCTYPE svg PUBLIC "-//W3C//DTD SVG 20010904//EN"
 "http://www.w3.org/TR/2001/REC-SVG-20010904/DTD/svg10.dtd">
<svg version="1.0" xmlns="http://www.w3.org/2000/svg"
 width="600.000000pt" height="600.000000pt" viewBox="0 0 600.000000 600.000000"
 preserveAspectRatio="xMidYMid meet">

<g transform="translate(0.000000,600.000000) scale(0.100000,-0.100000)"
fill="#ffffff" stroke="none">
<path d="M2785 5245 c-50 -49 -15 -135 54 -135 16 0 33 5 36 10 3 6 -4 10 -18
10 -57 0 -78 82 -31 119 26 20 26 21 5 21 -12 0 -33 -11 -46 -25z"/>
<path d="M3810 4904 c21 -91 -45 -174 -139 -174 -73 0 -124 41 -142 115 -6 27
-7 25 -8 -16 -2 -89 92 -170 179 -154 84 16 140 79 140 159 0 40 -21 106 -34
106 -2 0 0 -16 4 -36z"/>
<path d="M2434 4726 c-177 -40 -332 -146 -405 -276 -21 -37 -22 -37 -93 -43
-127 -9 -222 -63 -258 -144 -40 -90 -32 -293 15 -397 18 -41 21 -59 15 -91 -4
-22 -7 -101 -6 -175 2 -107 -1 -141 -13 -165 -27 -50 -68 -186 -78 -255 -15
-110 6 -194 64 -258 l35 -40 -16 -63 c-30 -117 -1 -303 74 -469 16 -36 32 -83
36 -105 10 -50 31 -92 66 -130 15 -16 33 -47 40 -68 12 -37 68 -105 102 -123
14 -7 15 -16 9 -44 -4 -19 -4 -48 1 -65 5 -18 4 -46 -3 -72 -6 -23 -10 -79 -8
-125 5 -100 20 -126 99 -165 47 -24 67 -28 135 -27 76 0 101 7 188 52 4 2 7
-8 7 -22 0 -16 -9 -31 -24 -41 -52 -35 -106 -179 -106 -287 0 -163 94 -354
214 -437 64 -45 155 -66 215 -51 57 14 92 47 139 130 l37 65 2 155 c1 170 7
194 56 225 18 11 41 39 52 62 12 24 40 62 62 85 43 44 73 109 73 158 0 15 9
35 21 46 31 28 60 91 64 135 1 22 10 50 18 63 9 13 22 46 28 73 7 26 21 60 31
74 28 37 38 92 26 141 -6 24 -10 77 -9 118 2 75 -15 145 -53 217 -15 31 -15
31 24 70 21 22 42 53 46 69 3 16 17 40 29 54 13 14 30 41 39 60 20 47 35 64
72 83 24 12 33 25 39 54 4 20 17 50 30 65 32 38 40 81 21 115 -28 50 -58 147
-56 178 5 58 3 91 -8 135 -35 140 -40 182 -29 254 7 52 7 111 -2 218 -12 143
-12 149 8 173 37 48 54 121 48 204 -15 217 -89 296 -298 317 -65 6 -66 6 -109
61 -75 93 -187 168 -320 213 -84 29 -293 37 -386 16z m336 -67 c146 -40 270
-124 344 -233 74 -106 116 -363 96 -577 -9 -99 -32 -235 -41 -244 -2 -2 -17 7
-33 20 l-28 23 16 88 c23 125 21 291 -4 388 -38 150 -128 269 -242 321 -104
47 -328 69 -450 44 -183 -38 -338 -192 -338 -335 0 -37 -4 -54 -15 -58 -17 -6
-83 -106 -96 -145 -18 -53 1 175 21 259 74 304 282 467 600 469 68 1 117 -5
170 -20z m-165 -243 c-108 -34 -190 -101 -220 -180 l-18 -46 -34 50 c-23 35
-43 52 -65 58 l-32 8 44 31 c99 67 176 92 290 92 75 0 75 0 35 -13z m769 -76
c25 -11 51 -31 59 -44 48 -72 63 -246 27 -315 -27 -54 -71 -87 -130 -100 -92
-20 -86 -28 -93 122 -6 114 -23 229 -52 341 l-8 29 77 -6 c47 -3 93 -14 120
-27z m-394 -88 c62 -86 82 -150 87 -277 3 -60 0 -135 -5 -165 -8 -51 -9 -48
-11 55 -1 99 -11 179 -24 191 -2 3 -14 -11 -25 -30 -72 -122 -257 -104 -307
29 -53 137 83 277 219 225 14 -5 26 -7 26 -5 0 3 -17 24 -37 47 l-38 42 38
-29 c21 -15 56 -53 77 -83z m-964 86 c-43 -106 -67 -247 -67 -400 l-1 -117
-39 -6 c-47 -8 -98 7 -127 38 -39 41 -54 97 -60 214 -6 139 9 190 68 229 58
39 239 72 226 42z m250 -137 c-10 -16 -36 -13 -43 5 -8 22 18 37 36 20 7 -8
10 -19 7 -25z m-58 -127 c2 -23 -4 -39 -20 -55 -23 -23 -25 -23 -56 -8 l-32
16 31 42 c37 53 72 54 77 5z m-88 11 c0 -9 -33 -59 -51 -77 -9 -9 -19 -23 -22
-30 -4 -10 -8 -10 -16 2 -15 21 -15 22 19 68 18 25 38 42 50 42 11 0 20 -2 20
-5z m154 -51 c19 -7 21 -53 4 -77 -11 -15 -18 -16 -45 -5 -24 9 -38 9 -57 0
-37 -16 -32 1 12 48 38 39 55 46 86 34z m-135 -36 c17 -10 17 -14 5 -44 -8
-18 -14 -43 -14 -54 0 -17 -6 -20 -40 -20 -39 0 -40 1 -40 36 0 73 41 112 89
82z m-113 -29 c9 -15 11 -99 3 -105 -20 -12 -39 10 -39 46 0 60 17 89 36 59z
m228 -52 c15 -24 0 -33 -61 -40 -51 -6 -53 -5 -53 19 0 48 87 64 114 21z
m-249 -65 c24 -5 21 1 28 -49 5 -40 3 -43 -18 -43 -30 0 -31 2 -38 80 -3 36
-2 54 1 40 4 -14 16 -27 27 -28z m819 33 c3 -9 -1 -18 -10 -22 -19 -7 -39 11
-30 26 10 16 33 13 40 -4z m603 -201 c3 -78 3 -154 -1 -169 l-7 -28 -29 28
c-16 15 -46 38 -67 51 -35 22 -36 23 -13 24 18 1 21 3 9 8 -8 4 -22 13 -30 21
-13 13 -12 18 15 44 29 27 27 28 -21 11 -15 -5 -14 -4 2 10 19 16 19 16 -8 10
-26 -6 -27 -5 -17 22 6 15 18 33 28 40 9 8 14 14 11 14 -3 0 19 25 50 56 l55
57 8 -29 c5 -16 11 -92 15 -170z m-1294 144 c3 -24 9 -53 13 -65 6 -22 3 -23
-39 -23 -45 0 -46 1 -57 40 -6 21 -8 51 -4 65 5 21 12 25 44 25 36 0 38 -1 43
-42z m110 34 c16 -7 90 -102 84 -108 -2 -2 -19 2 -39 8 -29 9 -44 8 -76 -5
-39 -16 -39 -16 -51 9 -6 14 -11 40 -11 59 0 27 4 34 23 38 34 7 50 6 70 -1z
m-361 -70 c49 -3 68 -8 73 -20 3 -9 1 -18 -5 -20 -59 -20 -139 -126 -156 -207
-4 -19 5 -9 24 30 39 78 82 137 115 154 24 13 28 12 56 -15 17 -16 31 -38 31
-50 0 -12 5 -35 11 -53 10 -27 16 -31 47 -31 86 0 239 -110 227 -163 -2 -12
-16 -72 -29 -132 -13 -61 -41 -146 -61 -190 l-37 -80 -13 42 c-39 129 -98 173
-225 171 l-75 -1 61 -7 c89 -10 160 -53 202 -120 41 -68 41 -99 1 -140 -39
-38 -76 -58 -126 -66 -35 -5 -43 -2 -87 37 -60 53 -96 125 -96 193 0 48 0 48
-22 34 -53 -35 -85 -117 -68 -174 l8 -29 1 35 c2 54 19 107 46 137 l24 28 1
-54 c0 -75 28 -127 92 -175 l53 -39 -65 7 c-151 15 -223 89 -222 224 1 119 61
288 132 371 l30 35 50 -24 c27 -13 50 -26 50 -30 0 -4 -13 -31 -30 -61 -16
-30 -37 -75 -45 -101 -13 -38 -21 -48 -46 -53 -39 -9 -89 -51 -105 -92 -22
-52 -16 -62 8 -14 19 38 87 101 110 101 4 0 8 -8 9 -17 0 -14 2 -15 6 -3 21
60 78 168 86 163 6 -3 7 -1 3 5 -7 11 22 63 76 137 26 35 24 34 -16 -9 l-46
-50 -23 22 c-30 28 -82 39 -103 21 -9 -7 -22 -14 -29 -15 -20 -3 -29 125 -16
219 6 43 11 81 11 84 0 3 8 2 18 -2 9 -5 47 -10 84 -13z m901 -17 c1 -5 -6
-11 -15 -13 -11 -2 -18 3 -18 13 0 17 30 18 33 0z m-736 -40 c46 -20 112 -19
163 1 52 21 99 12 139 -25 26 -25 31 -36 31 -78 0 -63 -14 -111 -44 -152 l-25
-33 -14 29 c-20 38 -75 89 -110 102 -16 6 -50 11 -77 11 -53 0 -62 8 -75 67
l-6 32 33 -10 c18 -5 49 -8 68 -8 33 2 33 2 5 6 -60 7 -120 25 -137 40 -38 34
-12 43 49 18z m1091 -127 c16 -16 15 -28 -3 -28 -27 0 -91 -38 -118 -69 -14
-17 -28 -49 -32 -72 -9 -49 -31 -61 -175 -91 -76 -16 -118 -19 -210 -15 -98 5
-267 30 -279 43 -7 7 21 94 35 105 9 8 29 7 71 -2 36 -9 116 -13 213 -12 221
2 343 37 425 123 31 32 53 38 73 18z m177 -62 c59 -27 100 -71 115 -124 9 -33
14 -102 8 -102 -2 0 -25 7 -52 15 -63 19 -145 19 -173 0 -11 -8 -26 -29 -32
-47 -8 -27 -8 -29 2 -14 31 47 44 58 85 63 28 4 42 2 42 -6 0 -6 7 -11 15 -11
8 0 15 -4 15 -10 0 -5 -15 -10 -33 -10 -36 0 -77 -24 -77 -45 0 -7 -12 -27
-26 -44 -28 -34 -60 -39 -125 -21 -58 16 -76 44 -83 130 -10 126 15 187 94
228 62 31 157 30 225 -2z m-440 -222 c-26 -22 -27 -25 -7 -19 32 9 27 -2 -9
-21 -48 -24 -23 -41 42 -27 l51 10 -5 -32 c-5 -27 -2 -33 21 -42 l27 -11 -26
-1 c-14 -1 -33 -7 -44 -14 -17 -13 -15 -14 16 -21 l34 -7 -65 -29 c-41 -18
-71 -39 -82 -57 -22 -34 -23 -112 -3 -139 8 -10 15 -28 15 -39 0 -11 6 -45 14
-74 12 -47 12 -58 -3 -92 -9 -21 -20 -37 -26 -34 -5 2 -40 14 -77 25 l-68 22
0 118 c0 77 -7 153 -19 217 -11 54 -21 134 -22 178 l-2 80 84 7 c46 4 102 11
124 16 60 15 63 14 30 -14z m-329 -1 l71 -6 7 -90 c4 -50 14 -122 22 -161 17
-79 30 -280 21 -317 -6 -23 -10 -24 -96 -24 -86 0 -89 1 -73 18 11 12 19 45
23 93 4 51 11 80 24 94 16 17 17 25 6 59 -23 78 -88 107 -224 99 -59 -3 -64
-1 -56 14 5 10 23 28 39 40 19 14 26 24 19 29 -11 7 -8 20 29 128 l16 43 50
-6 c28 -4 83 -9 122 -13z m863 -48 c2 -3 -1 -16 -7 -30 -18 -38 -15 -76 9
-114 l20 -33 -22 -24 c-48 -51 -156 -56 -275 -14 -67 23 -84 40 -84 87 0 37
-2 36 59 22 63 -14 96 2 126 62 14 26 33 50 42 53 20 5 124 -2 132 -9z m55
-37 c22 -31 20 -71 -4 -99 -20 -24 -20 -24 -35 -5 -15 20 -20 81 -9 110 9 23
30 20 48 -6z m25 -187 c11 -27 21 -58 20 -68 0 -14 -2 -14 -6 -3 -2 8 -7 22
-10 30 -4 8 -7 17 -8 20 0 3 -9 20 -18 38 -10 17 -13 32 -8 32 4 0 18 -22 30
-49z m-446 12 c2 -10 8 -25 11 -34 6 -14 -3 -17 -59 -21 -73 -4 -93 -18 -104
-69 -8 -39 -22 -46 -46 -23 -26 26 -16 121 15 146 32 26 175 27 183 1z m70 -9
c18 -9 42 -27 53 -40 l22 -23 -22 -3 c-11 -2 -20 -9 -18 -16 1 -7 -8 -12 -22
-12 -24 0 -37 21 -52 83 -7 32 -4 33 39 11z m-615 -16 c31 -34 46 -79 30 -90
-23 -14 -45 -8 -62 17 -16 24 -21 25 -119 25 -91 0 -104 2 -115 20 -7 12 -8
20 -2 20 5 0 10 7 10 15 0 12 20 15 118 15 110 0 120 -2 140 -22z m925 5 c-5
-12 -2 -15 10 -10 9 3 17 2 17 -3 0 -6 -4 -10 -10 -10 -5 0 -7 -7 -4 -15 5
-11 2 -13 -10 -9 -22 8 -62 -20 -69 -49 -4 -13 -14 -40 -22 -61 -15 -36 -17
-37 -38 -22 -72 52 -149 73 -202 57 -28 -9 -27 -9 17 -10 93 -2 209 -57 205
-98 -1 -13 -7 -23 -13 -23 -7 0 -9 -10 -6 -27 5 -26 4 -27 -12 -14 -15 13 -19
13 -26 1 -5 -9 -4 -20 3 -29 10 -12 9 -13 -11 -2 -22 12 -23 11 -12 -10 11
-20 10 -20 -22 4 -49 38 -118 67 -158 67 -31 0 -28 -3 30 -23 86 -31 150 -72
150 -97 0 -12 -5 -17 -13 -15 -9 4 -12 -5 -11 -31 2 -26 -1 -33 -9 -25 -15 15
-27 14 -22 -1 3 -7 1 -20 -5 -28 -7 -12 -16 -7 -48 27 -41 45 -111 83 -152 82
-23 -1 -22 -2 6 -10 45 -13 126 -70 140 -97 6 -13 9 -33 6 -45 -3 -12 -7 -16
-10 -9 -6 19 -18 14 -19 -8 -1 -11 -13 -31 -28 -46 l-25 -25 -31 25 c-35 30
-89 46 -144 44 -33 -1 -35 -2 -10 -5 97 -13 178 -63 168 -103 -3 -11 -10 -17
-15 -14 -6 4 -8 -2 -3 -15 9 -29 -3 -27 -71 14 -32 19 -63 35 -70 35 -7 0 -21
2 -31 5 -10 3 -2 -2 17 -11 19 -8 52 -27 73 -41 30 -21 37 -32 37 -59 0 -23 7
-38 26 -52 l27 -19 -31 -34 c-25 -28 -32 -31 -45 -20 -9 7 -13 20 -10 29 5 12
-1 10 -20 -7 -21 -19 -33 -23 -62 -18 -80 13 -175 78 -175 120 0 27 46 102 84
136 19 18 26 34 26 60 0 21 14 64 35 104 19 38 35 75 35 83 0 7 15 31 33 51
18 21 40 55 50 76 9 20 21 37 27 37 5 0 29 19 51 43 l42 42 82 0 c67 0 87 -4
104 -19 21 -19 21 -19 21 2 0 15 5 20 15 16 8 -4 15 -1 15 5 0 7 7 14 15 17
19 8 80 64 70 64 -5 0 0 9 10 20 22 24 37 26 28 3z m65 -88 c37 -17 52 -30 52
-44 0 -32 -20 -35 -49 -7 -27 26 -65 34 -76 16 -3 -5 -15 -10 -26 -10 -24 0
-26 32 -3 54 21 22 40 20 102 -9z m-1032 -10 c13 -14 31 -25 41 -25 17 0 18
-6 13 -67 -6 -58 -22 -113 -34 -113 -8 0 -94 118 -100 137 -4 12 -26 38 -48
58 l-42 35 74 0 c65 0 75 -3 96 -25z m-156 -31 c17 -15 37 -39 45 -54 8 -15
43 -66 79 -113 69 -91 166 -274 166 -312 0 -12 -6 -28 -14 -34 -12 -10 -13 -8
-9 9 4 16 2 19 -11 14 -12 -5 -16 0 -16 22 0 23 -2 26 -10 14 -7 -11 -10 -5
-10 25 0 41 -49 157 -50 120 -1 -14 -5 -10 -16 15 -22 50 -62 100 -90 110 -14
6 -24 18 -24 29 0 11 -13 33 -29 49 -35 34 -71 47 -71 26 0 -8 6 -14 14 -14 8
0 26 -14 41 -32 22 -26 26 -39 22 -71 -6 -47 -25 -69 -102 -119 -126 -82 -268
-99 -378 -44 -87 44 -89 47 -94 128 -5 87 14 171 39 176 12 2 16 -2 13 -16 -3
-18 2 -19 63 -16 l66 3 -51 -29 c-29 -16 -55 -35 -59 -42 -4 -6 7 -2 24 11 45
32 209 71 298 71 78 0 92 11 59 43 -13 13 -11 16 11 21 14 4 27 13 30 21 9 22
29 18 64 -11z m631 -8 c-17 -18 -19 -25 -9 -29 9 -4 8 -6 -3 -6 -20 -1 -48
-31 -29 -31 10 0 10 -3 0 -15 -17 -20 -30 -9 -30 26 0 19 5 29 14 29 8 0 27
11 42 25 34 32 45 33 15 1z m558 -19 c8 -11 9 -22 1 -41 -5 -15 -10 -38 -10
-51 0 -35 -43 -44 -89 -19 -45 25 -55 43 -47 87 6 33 10 36 31 31 14 -3 33 0
46 10 23 16 45 10 68 -17z m-1699 -7 c0 -5 -5 -10 -11 -10 -5 0 -7 5 -4 10 3
6 8 10 11 10 2 0 4 -4 4 -10z m1620 -144 c0 -7 -7 -19 -14 -26 -8 -6 -20 -27
-26 -46 -6 -18 -22 -42 -34 -52 -13 -9 -26 -34 -30 -54 -6 -34 -53 -88 -77
-88 -13 0 -54 -69 -63 -105 -8 -32 -42 -75 -61 -75 -6 0 -18 -9 -28 -20 -18
-22 -42 -26 -52 -10 -3 6 1 17 9 26 9 8 16 19 16 24 0 4 11 7 25 6 16 -2 26 3
30 14 3 10 13 21 21 24 11 4 13 13 8 28 -3 13 -3 20 1 16 7 -7 45 26 45 40 0
4 8 15 18 23 9 9 23 25 31 37 11 16 18 19 28 10 10 -8 13 -6 13 8 0 11 10 39
22 64 12 25 20 48 20 53 -1 4 3 7 8 7 6 0 8 11 4 28 -6 23 -5 25 7 15 12 -10
18 -5 32 28 16 37 47 54 47 25z m-1017 -59 c28 -37 37 -151 13 -160 -14 -5
-15 -3 -6 13 15 28 12 39 -8 33 -28 -7 -44 19 -32 51 13 35 13 36 -4 36 -20 0
-29 16 -21 41 9 26 33 21 58 -14z m350 12 c42 -14 45 -24 22 -109 -12 -48 -12
-53 0 -36 15 20 21 11 7 -11 -6 -10 -28 -10 -99 -1 l-90 12 -37 73 c-20 40
-36 78 -36 85 0 14 180 4 233 -13z m73 -27 c9 -5 5 -20 -13 -52 -13 -25 -22
-37 -19 -27 3 10 6 34 6 53 0 34 5 40 26 26z m-943 -145 c95 -47 113 -67 60
-67 -15 0 -24 -3 -21 -6 3 -3 41 -1 85 5 57 8 101 23 168 55 51 25 92 40 96
35 4 -6 15 -6 31 0 55 21 52 -32 -4 -82 -28 -25 -34 -34 -18 -26 24 12 24 11
10 -6 -12 -15 -12 -17 -1 -10 11 6 13 4 8 -10 -7 -16 -6 -17 18 -1 23 15 24
15 18 -1 -4 -11 -3 -14 6 -9 9 6 9 3 -1 -13 -17 -28 -98 -67 -168 -82 -57 -12
-219 -7 -275 9 -37 10 -59 47 -96 159 -30 90 -34 107 -21 101 4 -2 51 -25 105
-51z m543 -33 c-4 -9 -9 -15 -11 -12 -3 3 -3 13 1 22 4 9 9 15 11 12 3 -3 3
-13 -1 -22z m354 0 c0 -3 -20 -28 -44 -55 -24 -27 -51 -69 -59 -94 -9 -25 -28
-56 -44 -70 -33 -29 -43 -31 -43 -9 0 11 -6 15 -20 11 -42 -11 -6 74 57 135
56 54 153 106 153 82z m-310 -76 c20 -45 26 -123 11 -147 -12 -19 -34 -3 -28
20 3 11 1 19 -4 19 -6 0 -5 8 1 20 13 24 3 26 -22 3 -17 -15 -18 -15 -18 2 0
10 -5 15 -14 12 -9 -4 -5 13 13 54 14 32 29 59 34 59 4 0 17 -19 27 -42z
m-397 -133 c79 -2 133 -8 142 -15 10 -8 19 -9 34 0 12 6 21 7 21 2 0 -17 -98
-52 -147 -52 -39 -1 -45 -3 -29 -11 24 -15 108 -3 165 22 57 25 69 24 45 -3
-10 -12 -13 -18 -5 -13 8 5 27 9 43 10 26 2 27 0 13 -15 -18 -20 -19 -31 -2
-24 8 3 13 -3 13 -16 0 -48 -237 -80 -349 -46 -25 7 -60 24 -77 36 -33 23 -69
89 -70 124 0 16 5 18 38 11 20 -4 95 -9 165 -10z m602 -27 c-4 -13 -9 -47 -12
-75 -6 -55 -11 -61 -31 -41 -18 18 -15 54 8 98 22 43 47 55 35 18z m553 -60
c2 7 8 9 14 6 7 -5 9 6 5 32 l-6 39 20 -44 c15 -30 19 -53 15 -77 l-7 -33 -52
25 c-29 13 -62 24 -74 24 -12 0 -25 4 -28 10 -8 13 14 52 26 45 5 -4 9 0 9 7
0 8 6 20 12 26 10 10 18 4 37 -29 14 -23 27 -37 29 -31z m-508 37 c12 -15 21
-155 10 -155 -33 0 -65 80 -53 130 10 45 21 51 43 25z m-210 -20 c7 -9 10 -27
7 -44 -4 -16 -3 -31 1 -33 4 -2 20 -23 37 -48 53 -81 46 -185 -25 -369 -66
-170 -189 -251 -336 -221 -60 13 -114 53 -114 84 0 13 12 9 57 -16 67 -38 135
-43 195 -14 131 63 255 299 233 445 -4 25 -18 68 -33 94 -21 39 -30 47 -47 43
-46 -12 -85 50 -53 82 17 17 63 15 78 -3z m283 -21 c18 -10 57 -17 90 -18 56
-1 59 -2 64 -29 l6 -28 21 33 21 33 3 -34 c7 -65 -31 -111 -92 -111 -29 0 -64
37 -81 87 -8 21 -14 30 -15 20 0 -10 7 -33 14 -52 l15 -35 -29 0 c-40 0 -60
32 -60 97 0 29 2 53 5 53 4 0 20 -7 38 -16z m374 -50 c30 -9 52 -18 49 -21 -3
-4 2 -12 12 -19 15 -11 14 -14 -17 -27 -30 -13 -32 -15 -14 -21 15 -5 19 -13
15 -36 -3 -25 -9 -30 -31 -30 l-26 -1 25 -14 25 -14 -27 -1 c-14 0 -28 -5 -30
-11 -3 -8 -30 -3 -86 15 -45 15 -84 31 -86 35 -3 4 8 19 24 34 16 15 32 42 35
60 16 73 34 80 132 51z m-1113 -45 c67 -21 138 -22 204 -3 12 3 22 2 22 -3 0
-6 -10 -15 -22 -21 -22 -11 -22 -11 4 -6 33 7 69 -11 62 -31 -10 -24 -161 -68
-212 -61 -69 9 -122 57 -143 128 -6 21 -5 28 4 24 7 -3 43 -15 81 -27z m530
25 c9 -3 16 -12 16 -20 0 -8 6 -15 13 -15 6 -1 27 -3 45 -5 18 -1 44 -9 57
-18 13 -9 29 -16 35 -16 6 0 19 -7 27 -16 12 -11 30 -15 64 -12 33 2 50 -1 54
-9 2 -7 10 -13 17 -13 18 0 168 -66 181 -79 8 -8 6 -11 -9 -11 -19 -1 -19 -1
1 -12 28 -15 28 -14 20 -37 -5 -16 -15 -21 -41 -21 -34 0 -35 -1 -18 -17 17
-17 17 -18 -1 -22 -14 -2 -15 -5 -4 -11 25 -16 1 -21 -42 -10 -75 20 -171 73
-228 125 -31 28 -49 40 -43 28 15 -27 113 -108 161 -133 20 -10 56 -23 80 -30
42 -11 42 -12 25 -31 -9 -10 -14 -22 -11 -26 10 -10 -14 -34 -27 -26 -7 4 -6
1 1 -9 7 -8 10 -17 7 -21 -3 -3 -1 -14 5 -25 8 -15 8 -21 -2 -25 -9 -3 -9 -7
2 -20 12 -15 10 -17 -15 -17 -69 1 -185 76 -250 163 -24 33 -44 55 -44 49 0
-22 91 -131 139 -166 54 -40 123 -66 175 -66 21 0 27 -3 18 -9 -12 -7 -12 -11
0 -22 13 -11 12 -17 0 -43 -21 -44 -42 -66 -64 -66 -10 0 -21 -7 -24 -15 -8
-21 -40 -18 -107 9 -76 32 -128 68 -151 106 -10 17 -20 29 -23 26 -3 -3 11
-28 32 -56 42 -57 97 -93 169 -111 l49 -12 -22 -19 c-13 -10 -17 -18 -10 -18
17 0 2 -13 -32 -27 -22 -10 -38 -7 -101 21 -136 59 -198 116 -198 181 0 32 21
73 49 99 17 15 21 31 21 78 0 63 16 114 43 137 12 9 17 29 17 62 0 40 5 55 31
84 27 30 29 36 14 41 -16 6 -15 9 6 25 l24 19 -36 0 c-26 0 -50 10 -83 36 -25
19 -44 39 -41 45 7 11 9 11 29 3z m713 -114 c-3 -21 -17 -55 -31 -76 -14 -21
-26 -50 -26 -65 0 -29 -37 -90 -59 -97 -10 -3 -12 1 -8 17 3 11 1 21 -5 21 -5
0 -2 7 7 16 13 14 14 19 3 25 -10 7 -8 9 5 9 12 0 23 12 30 30 6 17 17 30 25
30 7 0 10 5 7 10 -3 6 -1 10 6 10 6 0 9 8 6 20 -3 11 -2 20 2 20 4 0 8 6 9 13
1 15 10 80 11 87 1 3 6 -3 12 -14 6 -10 9 -35 6 -56z m-837 -12 l0 -31 25 23
24 23 12 -29 c10 -26 9 -50 -5 -160 -2 -11 -18 -49 -36 -83 -66 -123 -170
-200 -252 -187 -51 8 -112 40 -132 68 -20 28 -20 88 -2 133 l15 35 82 0 c75 0
80 -1 68 -17 -10 -12 -2 -10 30 8 24 13 53 39 64 56 10 18 23 30 28 27 6 -3 8
24 7 64 -3 77 9 102 48 102 20 0 24 -5 24 -32z m-117 -35 c-12 -125 -40 -153
-152 -153 -47 0 -82 5 -89 12 -16 16 -15 51 2 92 12 30 20 35 63 41 26 4 75
17 108 30 33 13 63 24 66 24 4 1 4 -20 2 -46z m847 -238 c0 -39 -19 -84 -45
-105 -15 -13 -17 -11 -13 10 1 14 10 30 18 37 13 11 12 12 -5 13 -15 0 -17 2
-6 9 7 5 11 13 7 19 -3 5 1 15 10 22 12 11 12 15 2 21 -9 6 -6 9 10 9 19 0 22
-5 22 -35z m-82 -194 c-5 -46 -44 -128 -56 -117 -6 7 15 53 37 79 9 11 10 17
3 17 -16 0 -15 43 0 58 19 19 21 15 16 -37z m-549 -159 c27 -22 79 -52 115
-68 36 -15 66 -32 66 -36 0 -5 -9 -17 -20 -28 l-20 -20 -50 25 c-37 19 -50 31
-51 48 0 21 -1 21 -8 2 -8 -18 -12 -17 -50 23 -25 26 -41 52 -41 67 0 14 2 25
5 25 3 0 27 -17 54 -38z m-100 -48 c-43 -98 -36 -278 14 -379 55 -111 165
-188 269 -189 32 -1 58 -4 58 -8 0 -16 -61 -38 -105 -38 -163 0 -328 240 -312
455 5 71 41 171 75 208 25 28 25 6 1 -49z m531 5 c0 -15 -56 -69 -72 -69 -15
1 20 30 36 30 6 0 5 4 -3 9 -12 8 -12 12 -2 25 15 18 41 21 41 5z m-453 -39
c25 -22 50 -40 54 -40 5 0 6 -27 2 -60 -5 -53 -3 -64 20 -99 14 -21 43 -49 63
-62 l38 -23 -28 -12 -29 -11 61 -33 c55 -31 60 -36 50 -54 -6 -12 -16 -24 -22
-28 -14 -9 -5 -17 30 -24 26 -5 32 -2 44 23 7 15 12 34 11 41 -1 6 3 12 9 12
5 0 10 5 10 10 0 6 -9 10 -19 10 -14 0 -18 5 -14 20 3 11 9 20 13 20 5 0 16 3
26 7 15 6 16 0 12 -60 -10 -121 -64 -168 -167 -146 -149 32 -251 182 -251 367
0 71 22 182 36 182 3 0 26 -18 51 -40z m298 -46 c30 -8 55 -19 55 -24 0 -13
-42 -40 -63 -40 -15 0 -16 3 -7 20 13 24 2 27 -15 3 -11 -15 -17 -15 -55 -4
-41 12 -42 13 -21 27 11 8 21 22 21 31 0 9 6 13 15 9 9 -3 40 -13 70 -22z
m-130 -49 c44 -19 94 -35 112 -35 39 0 43 -6 50 -73 4 -44 2 -55 -16 -71 -63
-57 -241 54 -241 150 0 27 8 64 14 64 1 0 37 -16 81 -35z"/>
<path d="M1973 3419 c-18 -5 -33 -11 -33 -12 0 -1 33 -2 73 -2 67 0 76 -3 122
-35 28 -20 65 -59 84 -88 41 -61 51 -62 20 0 -64 126 -150 170 -266 137z"/>
<path d="M2245 3690 c3 -5 19 -10 35 -10 16 0 32 -4 35 -10 8 -12 25 -13 25
-1 0 11 -54 31 -82 31 -11 0 -16 -4 -13 -10z"/>
<path d="M2292 3598 c-19 -19 -14 -46 9 -59 17 -8 24 -8 36 3 12 13 11 15 -9
14 -19 -1 -23 4 -21 27 2 31 1 31 -15 15z"/>
<path d="M2678 2671 c54 -34 38 -101 -24 -101 -30 0 -37 5 -49 33 -12 27 -14
28 -15 10 0 -27 32 -62 58 -64 52 -4 82 21 82 66 0 35 -21 59 -60 70 -21 5
-20 3 8 -14z"/>
<path d="M4005 4478 c0 -35 -4 -45 -26 -57 -37 -21 -77 -8 -94 32 l-14 32 -1
-28 c-1 -66 92 -103 138 -54 24 26 29 74 10 100 -11 15 -13 11 -13 -25z"/>
<path d="M4173 4089 c-113 -56 -154 -183 -97 -297 14 -29 40 -62 57 -74 l32
-22 -32 37 c-18 21 -35 50 -39 65 -3 15 -8 33 -10 41 -15 47 52 152 113 177
42 18 125 18 166 0 47 -20 93 -74 111 -131 l16 -50 -3 62 c-8 160 -174 261
-314 192z"/>
<path d="M4306 2899 c53 -59 70 -152 40 -222 -17 -39 -71 -92 -109 -106 -66
-25 -155 -5 -210 47 -44 41 -59 79 -60 149 -2 64 -2 64 -16 31 -8 -20 -11 -57
-9 -95 5 -77 40 -133 113 -178 41 -26 58 -30 114 -30 102 1 178 51 216 142 38
91 -4 236 -80 275 -19 10 -19 10 1 -13z"/>
<path d="M3591 2252 c-1 -30 -44 -72 -73 -72 -32 0 -66 25 -71 53 -4 18 -4 17
-6 -6 -1 -33 38 -77 69 -77 58 0 98 47 87 101 l-4 24 -2 -23z"/>
</g>
</svg>
